<svg xmlns="http://www.w3.org/2000/svg" xmlns:xlink="http://www.w3.org/1999/xlink" contentStyleType="text/css" height="294px" preserveAspectRatio="none" style="width:631px;height:294px;background:#FFFFFF;" version="1.1" viewBox="0 0 631 294" width="631px" zoomAndPan="magnify"><defs/><g><!--cluster relations_component--><g id="cluster_relations_component"><rect fill="none" height="281.78" rx="2.5" ry="2.5" style="stroke:#444444;stroke-width:1.0;stroke-dasharray:7.0,7.0;" width="618" x="7" y="7"/><text fill="#444444" font-family="sans-serif" font-size="16" font-weight="bold" lengthAdjust="spacing" textLength="190.9375" x="220.5313" y="33.8516">Relations component</text></g><!--entity users_service--><g id="elem_users_service"><rect fill="#438DD5" height="52.5938" rx="2.5" ry="2.5" style="stroke:#3C7FC0;stroke-width:0.5;" width="140.8672" x="32.57" y="54"/><text fill="#FFFFFF" font-family="sans-serif" font-size="12" font-style="italic" lengthAdjust="spacing" textLength="71.543" x="67.2321" y="75.1387">&#171;container&#187;</text><text fill="#FFFFFF" font-family="sans-serif" font-size="16" font-weight="bold" lengthAdjust="spacing" textLength="50.7813" x="42.57" y="92.8203">Users</text><text fill="#FFFFFF" font-family="sans-serif" font-size="16" font-weight="bold" lengthAdjust="spacing" textLength="5.5703" x="93.3513" y="92.8203">&#160;</text><text fill="#FFFFFF" font-family="sans-serif" font-size="16" font-weight="bold" lengthAdjust="spacing" textLength="64.5156" x="98.9216" y="92.8203">service</text></g><!--entity users_db--><g id="elem_users_db"><path d="M23.16,197.9 C23.16,187.9 102.9959,187.9 102.9959,187.9 C102.9959,187.9 182.8319,187.9 182.8319,197.9 L182.8319,253.4625 C182.8319,263.4625 102.9959,263.4625 102.9959,263.4625 C102.9959,263.4625 23.16,263.4625 23.16,253.4625 L23.16,197.9 " fill="#438DD5" style="stroke:#3C7FC0;stroke-width:0.5;"/><path d="M23.16,197.9 C23.16,207.9 102.9959,207.9 102.9959,207.9 C102.9959,207.9 182.8319,207.9 182.8319,197.9 " fill="none" style="stroke:#3C7FC0;stroke-width:0.5;"/><text fill="#FFFFFF" font-family="sans-serif" font-size="12" font-style="italic" lengthAdjust="spacing" textLength="71.543" x="67.2245" y="223.0387">&#171;container&#187;</text><text fill="#FFFFFF" font-family="sans-serif" font-size="16" font-weight="bold" lengthAdjust="spacing" textLength="50.7813" x="33.16" y="240.7203">Users</text><text fill="#FFFFFF" font-family="sans-serif" font-size="16" font-weight="bold" lengthAdjust="spacing" textLength="5.5703" x="83.9413" y="240.7203">&#160;</text><text fill="#FFFFFF" font-family="sans-serif" font-size="16" font-weight="bold" lengthAdjust="spacing" textLength="83.3203" x="89.5116" y="240.7203">database</text><text fill="#FFFFFF" font-family="sans-serif" font-size="12" font-style="italic" lengthAdjust="spacing" textLength="61.084" x="72.4539" y="255.6324">[Postgres]</text></g><!--entity subscriptions_service--><g id="elem_subscriptions_service"><rect fill="#438DD5" height="52.5938" rx="2.5" ry="2.5" style="stroke:#3C7FC0;stroke-width:0.5;" width="213.3281" x="303.34" y="54"/><text fill="#FFFFFF" font-family="sans-serif" font-size="12" font-style="italic" lengthAdjust="spacing" textLength="71.543" x="374.2326" y="75.1387">&#171;container&#187;</text><text fill="#FFFFFF" font-family="sans-serif" font-size="16" font-weight="bold" lengthAdjust="spacing" textLength="123.2422" x="313.34" y="92.8203">Subscriptions</text><text fill="#FFFFFF" font-family="sans-serif" font-size="16" font-weight="bold" lengthAdjust="spacing" textLength="5.5703" x="436.5822" y="92.8203">&#160;</text><text fill="#FFFFFF" font-family="sans-serif" font-size="16" font-weight="bold" lengthAdjust="spacing" textLength="64.5156" x="442.1525" y="92.8203">service</text></g><!--entity users_subscriptions_db--><g id="elem_users_subscriptions_db"><path d="M218.2,188.59 C218.2,178.59 316.9969,178.59 316.9969,178.59 C316.9969,178.59 415.7938,178.59 415.7938,188.59 L415.7938,262.7775 C415.7938,272.7775 316.9969,272.7775 316.9969,272.7775 C316.9969,272.7775 218.2,272.7775 218.2,262.7775 L218.2,188.59 " fill="#438DD5" style="stroke:#3C7FC0;stroke-width:0.5;"/><path d="M218.2,188.59 C218.2,198.59 316.9969,198.59 316.9969,198.59 C316.9969,198.59 415.7938,198.59 415.7938,188.59 " fill="none" style="stroke:#3C7FC0;stroke-width:0.5;"/><text fill="#FFFFFF" font-family="sans-serif" font-size="12" font-style="italic" lengthAdjust="spacing" textLength="71.543" x="281.2254" y="213.7287">&#171;container&#187;</text><text fill="#FFFFFF" font-family="sans-serif" font-size="16" font-weight="bold" lengthAdjust="spacing" textLength="50.7813" x="228.2" y="231.4103">Users</text><text fill="#FFFFFF" font-family="sans-serif" font-size="16" font-weight="bold" lengthAdjust="spacing" textLength="5.5703" x="278.9813" y="231.4103">&#160;</text><text fill="#FFFFFF" font-family="sans-serif" font-size="16" font-weight="bold" lengthAdjust="spacing" textLength="121.2422" x="284.5516" y="231.4103">subscriptions</text><text fill="#FFFFFF" font-family="sans-serif" font-size="16" font-weight="bold" lengthAdjust="spacing" textLength="83.3203" x="275.3367" y="250.0353">database</text><text fill="#FFFFFF" font-family="sans-serif" font-size="12" font-style="italic" lengthAdjust="spacing" textLength="61.084" x="286.4549" y="264.9474">[Postgres]</text></g><!--entity users_locations_db--><g id="elem_users_locations_db"><path d="M450.93,188.59 C450.93,178.59 530.0042,178.59 530.0042,178.59 C530.0042,178.59 609.0784,178.59 609.0784,188.59 L609.0784,262.7775 C609.0784,272.7775 530.0042,272.7775 530.0042,272.7775 C530.0042,272.7775 450.93,272.7775 450.93,262.7775 L450.93,188.59 " fill="#438DD5" style="stroke:#3C7FC0;stroke-width:0.5;"/><path d="M450.93,188.59 C450.93,198.59 530.0042,198.59 530.0042,198.59 C530.0042,198.59 609.0784,198.59 609.0784,188.59 " fill="none" style="stroke:#3C7FC0;stroke-width:0.5;"/><text fill="#FFFFFF" font-family="sans-serif" font-size="12" font-style="italic" lengthAdjust="spacing" textLength="71.543" x="494.2327" y="213.7287">&#171;container&#187;</text><text fill="#FFFFFF" font-family="sans-serif" font-size="16" font-weight="bold" lengthAdjust="spacing" textLength="50.7813" x="460.93" y="231.4103">Users</text><text fill="#FFFFFF" font-family="sans-serif" font-size="16" font-weight="bold" lengthAdjust="spacing" textLength="5.5703" x="511.7113" y="231.4103">&#160;</text><text fill="#FFFFFF" font-family="sans-serif" font-size="16" font-weight="bold" lengthAdjust="spacing" textLength="81.7969" x="517.2816" y="231.4103">locations</text><text fill="#FFFFFF" font-family="sans-serif" font-size="16" font-weight="bold" lengthAdjust="spacing" textLength="83.3203" x="488.3441" y="250.0353">database</text><text fill="#FFFFFF" font-family="sans-serif" font-size="12" font-style="italic" lengthAdjust="spacing" textLength="61.084" x="499.4622" y="264.9474">[Postgres]</text></g><!--link subscriptions_service to users_subscriptions_db--><g id="link_subscriptions_service_users_subscriptions_db"><path d="M393.37,106.93 C380.57,126.67 366.8947,147.7691 351.5547,171.4091 " fill="none" id="subscriptions_service-to-users_subscriptions_db" style="stroke:#666666;stroke-width:1.0;"/><polygon fill="#666666" points="347.2,178.12,354.0713,173.0421,349.0381,169.7761,347.2,178.12" style="stroke:#666666;stroke-width:1.0;"/><text fill="#666666" font-family="sans-serif" font-size="0" lengthAdjust="spacing" textLength="0" x="372" y="137.59">.</text></g><!--link subscriptions_service to users_locations_db--><g id="link_subscriptions_service_users_locations_db"><path d="M431.45,106.93 C447.97,126.67 466.1048,148.3457 485.8948,171.9857 " fill="none" id="subscriptions_service-to-users_locations_db" style="stroke:#666666;stroke-width:1.0;"/><polygon fill="#666666" points="491.03,178.12,488.1951,170.06,483.5944,173.9114,491.03,178.12" style="stroke:#666666;stroke-width:1.0;"/><text fill="#666666" font-family="sans-serif" font-size="0" lengthAdjust="spacing" textLength="0" x="463" y="137.59">.</text></g><!--link users_service to users_db--><g id="link_users_service_users_db"><path d="M103,106.93 C103,129.33 103,154.12 103,179.41 " fill="none" id="users_service-to-users_db" style="stroke:#666666;stroke-width:1.0;"/><polygon fill="#666666" points="103,187.41,106,179.41,100,179.41,103,187.41" style="stroke:#666666;stroke-width:1.0;"/><text fill="#666666" font-family="sans-serif" font-size="0" lengthAdjust="spacing" textLength="0" x="104" y="137.59">.</text></g><!--SRC=[hL4zQyCm4DtzAnGlSI2nbauTcumjX9JCHbya0baIkbDAAVtlbUh4jLrCEbI3u9xUU_TEjz1Mc2WLEIDwUAGqiBVwfF4SUGGLXBEeBDR2jTGRPZ6sPWCeZUPq-x3PP-ZuyanR1gX2WffjKZ1jLQXzuXQB__TllRDPy-rVFBbe9GllLL26eNOM6d6Zh4bvkA6aHyiL-IX8EdtKAaU19bqNBTIQB8-v9jTwkHgpT_pAbpmrwAYI8UCCL9cGlGCy1GNbH5T1v222zbtAdswlG_nkrx7B8CFeuK-9Ua_Z1FlbruDpNfz5aRvtRgpPjDabgUzA9w46iicw1jleI5y0]--></g></svg>